<svg version="1.1" id="Layer_1" xmlns="http://www.w3.org/2000/svg" xmlns:xlink="http://www.w3.org/1999/xlink" x="0px" y="0px"
	 width="100%" viewBox="0 0 500 500" enable-background="new 0 0 500 500" xml:space="preserve">
<path fill="#010101" opacity="1.000000" stroke="none" 
	d="
M493.080933,501.000000 
	C330.236053,501.000000 167.904922,500.986755 5.573868,501.085480 
	C1.960865,501.087677 0.891906,500.491791 0.894839,496.573853 
	C1.017461,332.742859 1.011414,168.911743 0.917423,5.080695 
	C0.915558,1.831232 1.330903,0.893301 4.919319,0.895925 
	C168.916992,1.015847 332.914795,1.022045 496.912415,0.871556 
	C500.968445,0.867834 501.060364,2.241795 501.059052,5.412436 
	C500.991974,168.076859 501.000000,330.741302 501.000000,493.405762 
	C501.000000,501.000000 501.000000,501.000000 493.080933,501.000000 
z"/>
<path fill="#0B0B0B" opacity="1.000000" stroke="none" 
	d="
M96.737724,332.838043 
	C95.979065,331.300903 97.220360,331.272247 98.072166,331.003693 
	C98.219391,330.957275 98.716736,331.385101 98.690857,331.528748 
	C98.517502,332.491028 97.697136,332.688782 96.737724,332.838043 
z"/>
<path fill="#0B0B0B" opacity="1.000000" stroke="none" 
	d="
M77.677979,338.864746 
	C77.834526,338.872833 77.926872,338.937653 78.019226,339.002502 
	C77.884079,338.975494 77.748932,338.948486 77.677979,338.864746 
z"/>
<path fill="#0A0A0A" opacity="1.000000" stroke="none" 
	d="
M346.233765,97.168846 
	C346.230530,97.205048 346.060669,97.157639 346.060669,97.157639 
	C346.060669,97.157639 346.237000,97.132645 346.233765,97.168846 
z"/>
<path fill="#0B0B0B" opacity="1.000000" stroke="none" 
	d="
M72.469818,330.929626 
	C72.527962,330.906921 72.539963,331.137604 72.539963,331.137604 
	C72.539963,331.137604 72.411674,330.952332 72.469818,330.929626 
z"/>
<path fill="#0B0B0B" opacity="1.000000" stroke="none" 
	d="
M85.989441,339.331757 
	C86.081375,339.332764 85.983910,339.638489 85.983910,339.638489 
	C85.983910,339.638489 85.897514,339.330750 85.989441,339.331757 
z"/>
<path fill="#0E0E0E" opacity="1.000000" stroke="none" 
	d="
M107.966492,346.223938 
	C108.398399,346.256409 108.744888,346.710114 108.989395,347.609070 
	C108.551964,347.584564 108.216507,347.114868 107.966492,346.223938 
z"/>
<path fill="#0A0A0A" opacity="1.000000" stroke="none" 
	d="
M344.456726,99.535034 
	C344.421539,99.474937 344.491943,99.595139 344.456726,99.535034 
z"/>
<path fill="#0B0B0B" opacity="1.000000" stroke="none" 
	d="
M78.530502,335.536987 
	C78.474014,335.568909 78.586998,335.505096 78.530502,335.536987 
z"/>
<path fill="#0E0E0E" opacity="1.000000" stroke="none" 
	d="
M107.866592,345.991577 
	C107.801727,346.051422 107.565437,345.718903 107.565437,345.718903 
	C107.565437,345.718903 107.933357,345.619568 107.992638,345.711121 
	C108.051918,345.802673 107.931450,345.931732 107.866592,345.991577 
z"/>
<path fill="#0E0E0E" opacity="1.000000" stroke="none" 
	d="
M109.053802,347.831970 
	C109.103035,347.753418 109.368317,348.039703 109.368317,348.039703 
	C109.368317,348.039703 109.041084,348.207367 108.964249,348.130798 
	C108.887413,348.054260 109.004578,347.910553 109.053802,347.831970 
z"/>
</svg>